<?xml version="1.0" standalone="no"?>
<!DOCTYPE svg PUBLIC "-//W3C//DTD SVG 1.1//EN" "http://www.w3.org/Graphics/SVG/1.1/DTD/svg11.dtd" >
<svg xmlns="http://www.w3.org/2000/svg">
<metadata>
This is a custom SVG webfont generated by Font Squirrel.
Copyright   : Copyright c 2011 by Pablo Impallari wwwimpallaricom Igino Marini wwwikerncom All rights reserved
Designer    : Pablo Impallari
Foundry     : Pablo Impallari wwwimpallaricom Igino Marini wwwikerncom
Foundry URL : wwwimpallaricom
</metadata>
<defs>
<font id="webfontnMNSmJZS" horiz-adv-x="964" >
<font-face units-per-em="2048" ascent="1638" descent="-410" />
<missing-glyph horiz-adv-x="518" />
<glyph unicode=" "  horiz-adv-x="518" />
<glyph unicode="&#x09;" horiz-adv-x="518" />
<glyph unicode="&#xa0;" horiz-adv-x="518" />
<glyph unicode="!" horiz-adv-x="503" d="M334 1405l10 -6q0 -14 -1 -35t-1 -25q0 -6 -6 -70.5t-11.5 -136t-13.5 -278.5t-14 -502l-10 -14l-72 -33l-12 8q-14 588 -45 1020l8 19zM154 72q0 39 28.5 68.5t67.5 29.5q37 0 66.5 -29.5t29.5 -68.5q0 -37 -29.5 -66t-66.5 -29q-39 0 -67.5 28t-28.5 67z" />
<glyph unicode="&#x22;" horiz-adv-x="589" d="M205 1077l-86 -20l-4 10q-4 240 -25 401l2 9l137 18l4 -8q-25 -156 -24 -402zM477 1077l-86 -20l-4 10q-4 240 -25 401l5 9l135 18l4 -8q-20 -129 -25 -402z" />
<glyph unicode="#" horiz-adv-x="1267" d="M600 0l-2 8q53 158 119 447h-275q-53 -268 -69 -447l-6 -8h-156l-2 8q53 158 119 447h-246l18 108h252l51 244h-262l19 106h266q53 260 66 418l4 8h155l4 -8q-61 -172 -114 -418h274q53 260 66 418l4 8h155l4 -8q-61 -172 -114 -418h258l-19 -106h-262l-51 -244h268 l-18 -108h-275q-53 -268 -69 -447l-6 -8h-156zM516 807l-49 -244h274l52 244h-277z" />
<glyph unicode="$" horiz-adv-x="1083" d="M485 -197l-4 7q6 59 15 194q-209 2 -394 96l-8 29l35 207h51l10 -10q18 -219 308 -230q4 104 4 310v227q-4 0 -6 2q-184 53 -282.5 135t-98.5 229q0 162 102 243t279 91q-2 82 -15 197l4 6h125l4 -6q-8 -57 -16 -197q176 -8 309 -65l8 -23l-28 -174h-58l-8 10 q-12 139 -225 158q-2 -88 -2 -229v-234q2 -2 6 -2q70 -20 122 -40.5t108.5 -54.5t91 -75t58.5 -100.5t24 -132.5q0 -168 -112 -258t-292 -105q2 -78 14 -198l-4 -7h-125zM594 604v-198q0 -203 2 -308q125 14 187.5 80t62.5 166q0 102 -65.5 160.5t-186.5 99.5zM264 1024 q0 -88 53.5 -133t184.5 -86v205q0 143 -2 229q-113 -10 -174.5 -65.5t-61.5 -149.5z" />
<glyph unicode="%" horiz-adv-x="1597" d="M248 39l2 8q188 223 403 522l246 338q238 330 311 463l11 8h155l-2 -8q-123 -137 -360 -463l-246 -338q-233 -324 -354 -522l-11 -8h-155zM1217 731q137 0 218 -108.5t81 -266t-82 -268.5t-224 -111q-137 0 -212.5 106.5t-75.5 264.5q0 164 80 273.5t215 109.5zM1217 55 q92 0 145 86t53 215t-55 213t-148 84q-90 0 -140 -83t-50 -214q0 -137 54.5 -219t140.5 -82zM383 1362q137 0 217 -108.5t80 -266.5t-81 -268.5t-222 -110.5q-137 0 -214 106.5t-77 264.5q0 164 81 273.5t216 109.5zM383 686q90 0 143.5 86t53.5 215t-55.5 213t-145.5 84 t-141.5 -83t-51.5 -214q0 -137 54.5 -219t142.5 -82z" />
<glyph unicode="&#x26;" horiz-adv-x="1519" d="M1446 868q0 -14 -16.5 -49t-61.5 -71.5t-106 -36.5q-14 0 -46 2l-77 5l-76 5q61 -92 61 -234q0 -162 -77 -276q84 -84 161.5 -126t182.5 -46l12 -8l6 -37l-6 -8q-31 0 -117 -4t-98 -4q-98 0 -234 131q-160 -131 -389 -131q-193 0 -330 99t-137 273q0 127 74 242t197 164 q-68 90 -95.5 154.5t-27.5 138.5q0 141 87 224t226 83q98 0 176 -39t94 -123l7 -20l-25 -146h-68l-8 8q-10 115 -55 165t-125 50q-86 0 -127 -49t-41 -123q0 -78 33 -149.5t143.5 -200.5t392.5 -428q51 96 52 193q0 113 -76 233q-43 -2 -64.5 -13t-40.5 -38l-28 14 q0 41 54 98.5t140 57.5q18 0 125 -8.5t166 -8.5q98 0 135 54zM872 197l-186 199q-156 168 -242 270q-94 -29 -146 -118t-52 -181q0 -131 103.5 -205t234.5 -74q167 0 288 109z" />
<glyph unicode="'" horiz-adv-x="315" d="M205 1077l-86 -20l-4 10q-4 240 -25 401l2 9l137 18l4 -8q-25 -156 -24 -402z" />
<glyph unicode="(" horiz-adv-x="579" d="M496 1579l30 -23v-10q-178 -223 -239 -475q-41 -166 -41 -401q0 -104 8 -189.5t32.5 -205t86 -242.5t153.5 -240v-10l-30 -23q-197 176 -305.5 413t-108.5 497q0 258 108.5 493.5t305.5 415.5z" />
<glyph unicode=")" horiz-adv-x="579" d="M53 1556l31 23q197 -178 305.5 -414.5t108.5 -494.5t-109.5 -497t-304.5 -413l-31 23v10q92 117 152.5 240t85 242.5t33 204.5t8.5 190q0 233 -41 401q-61 250 -238 475v10z" />
<glyph unicode="*" horiz-adv-x="845" d="M741 995l4 -10q-45 -53 -59 -102q-2 0 -6 -1l-4 -1q-88 76 -221 161q16 -190 34 -270l-8 -6q-27 2 -55 2q-33 0 -57 -2l-7 6q10 59 31 272q-135 -92 -219 -165q-2 0 -5 1t-5 1q-25 53 -58 94l2 6q1 6 1 8q135 49 251 113q-131 68 -243 104l-4 15q43 55 61 98l8 2 q39 -37 215 -164q-18 152 -51 273l6 8q25 -4 60 -4q37 0 57 4l6 -6q-20 -88 -20 -275q127 98 202 176q2 -6 11 -6q29 -57 57 -96q-2 -4 -2 -14q-141 -55 -248 -113q127 -70 266 -109z" />
<glyph unicode="+" horiz-adv-x="989" d="M547 874v-331h352l-20 -107h-332v-352h-107v352h-350l19 107h331v331h107z" />
<glyph unicode="," horiz-adv-x="436" d="M129 -158h-12l-13 13v8q47 74 48 139q0 12 -11.5 45t-11.5 55q0 31 39 49.5t82 18.5q51 0 51 -88q0 -72 -60.5 -146t-111.5 -94z" />
<glyph unicode="-" d="M156 543h673l-20 -107h-672z" />
<glyph unicode="." horiz-adv-x="444" d="M127 72q0 39 27.5 68.5t66.5 29.5t68.5 -29.5t29.5 -68.5t-29.5 -67t-68.5 -28t-66.5 28t-27.5 67z" />
<glyph unicode="/" horiz-adv-x="880" d="M76 -117v8q94 190 250 619l137 377q133 360 172 543l6 8h160l2 -8q-63 -119 -221 -543l-140 -377q-150 -397 -200 -619l-6 -8h-160z" />
<glyph unicode="0" horiz-adv-x="1359" d="M680 1362q250 0 397.5 -199.5t147.5 -488.5q0 -184 -61.5 -340t-190.5 -256.5t-303 -100.5q-252 0 -392.5 196t-140.5 486q0 301 146.5 502t396.5 201zM678 86q178 0 283.5 168t105.5 418q0 252 -107.5 416.5t-287.5 164.5q-178 0 -276.5 -160.5t-98.5 -418.5 q0 -270 105.5 -429t275.5 -159z" />
<glyph unicode="1" horiz-adv-x="747" d="M92 1108v27l6 12q213 104 326 211h14l45 -19q-2 -18 -4 -50t-3 -64.5t-1 -42.5q-6 -88 -6 -365v-289q0 -266 8 -360q4 -59 49 -100q41 -31 127 -31l11 -10l4 -27l-4 -8q-156 8 -209 8h-117q-53 0 -209 -8l-4 8l4 29l6 8q98 0 133 31q45 41 49 100q8 92 9 311v334 q0 254 -9 342l-219 -55z" />
<glyph unicode="2" horiz-adv-x="1128" d="M160 971l-25 147l6 19q129 225 420 225q403 0 404 -352q0 -86 -39 -162t-121 -186q-59 -82 -176 -216l-193 -224q-76 -91 -76 -118l5 -6h159q113 0 167 2t105.5 9.5t71 27t35 46t27.5 77.5l10 12h55l-37 -264l-18 -20q-221 12 -399 12h-203q-72 0 -211 -12l-21 22v47 q43 55 275.5 318.5t323.5 388.5q111 154 110 270q0 98 -75.5 158.5t-190.5 60.5q-137 0 -220 -70.5t-91 -203.5l-9 -8h-69z" />
<glyph unicode="3" horiz-adv-x="1142" d="M219 301q4 -88 89 -151.5t229 -63.5q168 0 243.5 88t75.5 205q0 121 -73.5 211t-209.5 90h-57l23 76q113 0 180 82t67 194q0 96 -59 158.5t-196.5 62.5t-197 -68.5t-75.5 -205.5l-8 -8h-68l-24 147l4 19q49 92 152.5 158.5t252.5 66.5q152 0 263.5 -83t111.5 -232 q0 -117 -60.5 -199t-138.5 -113q125 -27 197 -122t72 -226q0 -182 -137.5 -296t-358.5 -114q-262 0 -391 187l-2 18l22 127h68z" />
<glyph unicode="4" horiz-adv-x="1048" d="M88 446l-18 11l-23 45q104 182 294.5 467.5t258.5 373.5l133 19h17l24 -23q-2 -18 -4 -50t-3 -64.5t-1 -42.5q-6 -88 -6 -365v-264h133l8 -12l-22 -84l-15 -11h-104q0 -199 8 -278q4 -61 51 -100q37 -31 127 -31l8 -10l4 -27l-4 -8q-156 8 -206 8h-115q-76 0 -232 -8 l-2 8l9 29l8 8q113 0 145 31q45 41 49 100q8 90 8 278h-530zM612 1190q-78 -90 -209 -289t-202 -348h417v260q0 227 -6 377z" />
<glyph unicode="5" horiz-adv-x="1118" d="M854 412q0 281 -301 280q-160 0 -307 -74l-70 52l66 653l12 16h184q199 0 414 17l18 -17l31 -221l-12 -14h-37l-12 10q-8 41 -17.5 60.5t-25 36t-59.5 21.5t-93 7t-151 2h-123q-12 0 -13 -10l-41 -459q106 41 254 41q90 0 164 -19.5t136.5 -62.5t97.5 -119.5t35 -183.5 q0 -213 -137.5 -332t-364.5 -119q-254 0 -377 166l-2 21l22 145h74l6 -8q4 -96 81 -155.5t216 -59.5q174 0 253 92.5t79 233.5z" />
<glyph unicode="6" horiz-adv-x="1144" d="M297 690l6 -2q98 133 293 133q129 0 221 -42t134 -110.5t59.5 -131t17.5 -127.5q0 -174 -108.5 -303.5t-325.5 -129.5q-236 0 -339 167t-103 477q0 141 20.5 259.5t68.5 233.5t146 181.5t238 66.5q225 0 325 -96l-30 -129h-37q-70 117 -244 116q-94 0 -163.5 -42 t-108.5 -114.5t-56.5 -158.5t-17.5 -188q0 -27 4 -60zM606 709q-143 0 -218 -79t-75 -214q0 -53 13.5 -106.5t42 -105.5t86 -85t137.5 -33q137 0 217 91t80 237q0 119 -62.5 207t-220.5 88z" />
<glyph unicode="7" horiz-adv-x="1050" d="M399 14l-10 -14q-94 0 -192 -12l-15 20l402 734q228 427 227 491l-10 8h-279q-238 0 -302 -19.5t-81 -107.5l-12 -10h-37l-10 14l31 221l16 17q346 -16 625 -17h280l10 -6l-10 -51q-41 -51 -192.5 -333.5t-255.5 -499.5q-142 -296 -185 -435z" />
<glyph unicode="8" horiz-adv-x="1171" d="M580 1362q170 0 279.5 -89t109.5 -249q0 -203 -178 -272q127 -43 187 -144.5t60 -226.5q0 -168 -108.5 -286t-345.5 -118q-236 0 -343.5 117t-107.5 287q0 131 62.5 229.5t185.5 141.5q-178 74 -178 274q0 158 103.5 247t273.5 89zM582 686q-150 0 -221.5 -97t-71.5 -218 q0 -106 72.5 -195.5t224.5 -89.5q154 0 225.5 83t71.5 198q0 127 -74.5 223t-226.5 96zM813 1032q0 221 -231 221q-223 0 -224 -217q0 -121 61.5 -185.5t166.5 -64.5q98 0 162.5 72t64.5 174z" />
<glyph unicode="9" horiz-adv-x="1142" d="M848 649l-6 2q-100 -133 -293 -133q-129 0 -221 42t-134 110.5t-59.5 131t-17.5 128.5q0 109 41 203t142 161.5t251 67.5q236 0 339 -167t103 -476q0 -141 -20.5 -260t-69.5 -233.5t-147.5 -181.5t-237.5 -67q-225 0 -323 97l30 129h37q68 -117 244 -117q94 0 163.5 42 t108.5 114.5t56.5 158.5t17.5 189q0 26 -4 59zM539 631q143 0 216.5 78.5t73.5 214.5q0 55 -12 107t-40.5 104.5t-87 85t-138.5 32.5q-135 0 -215 -91t-80 -236q0 -119 62.5 -207t220.5 -88z" />
<glyph unicode=":" horiz-adv-x="464" d="M137 72q0 39 28 68.5t66.5 29.5t68.5 -29.5t30 -68.5t-30 -67t-68.5 -28t-66.5 28t-28 67zM137 836q0 39 28 67.5t66.5 28.5t68.5 -29t30 -67.5t-30 -67.5t-68.5 -29t-66.5 28t-28 69z" />
<glyph unicode=";" horiz-adv-x="485" d="M150 836q0 39 27.5 67.5t66.5 28.5t68.5 -29t29.5 -67.5t-29.5 -67.5t-68.5 -29t-66.5 28t-27.5 69zM160 -158h-10l-15 13v8q49 74 49 139q0 12 -12 45t-12 55q0 31 39 49.5t82 18.5q53 0 53 -88q0 -72 -60.5 -146t-113.5 -94z" />
<glyph unicode="&#x3c;" horiz-adv-x="851" d="M252 498v-11q170 -119 446 -280v-14l-18 -78l-8 -9q-289 209 -584 381v11q295 172 584 381l8 -9l18 -77v-15q-247 -141 -446 -280z" />
<glyph unicode="=" horiz-adv-x="999" d="M172 387h674l-21 -106h-671zM172 698h674l-21 -106h-671z" />
<glyph unicode="&#x3e;" horiz-adv-x="851" d="M600 487v11q-199 139 -446 280v15l18 77l8 9q289 -209 584 -381v-11q-295 -172 -584 -381l-8 9l-18 78v14q276 161 446 280z" />
<glyph unicode="?" horiz-adv-x="874" d="M455 479l-9 -127l-12 -14l-72 -33l-12 8q0 25 -2 71t-3 79t-1 49q0 74 43 153.5t94 139t94 143.5t43 164q0 98 -63 152.5t-141 54.5q-104 0 -175 -66.5t-83 -162.5l-4 -7h-37l-25 191l4 18q33 53 136.5 83t189.5 30q51 0 103 -15.5t107.5 -49t90.5 -102.5t35 -161 q0 -86 -46 -179t-101.5 -159.5t-102.5 -139.5t-51 -120zM303 74q0 39 27.5 67.5t66.5 28.5t69 -28.5t30 -67.5t-30 -68t-69 -29t-66.5 29t-27.5 68z" />
<glyph unicode="@" horiz-adv-x="1470" d="M848 469l51 256q-12 12 -51 12q-123 0 -189.5 -119.5t-66.5 -248.5q0 -131 65 -131q51 0 113 75.5t78 155.5zM1212 23l-34 -70q-53 -51 -185.5 -105.5t-281.5 -54.5q-252 0 -426 160t-174 416q0 96 25.5 197.5t84 201.5t140 179t203.5 127t267 48q139 0 249 -44 t175.5 -117.5t99.5 -161.5t34 -183q0 -188 -118 -326t-300 -138q-92 0 -121 36.5t-29 112.5q-33 -68 -86 -109.5t-106 -41.5q-68 0 -120 65.5t-52 179.5q0 174 121.5 288t269.5 114q135 0 201 -68l-76 -364q-8 -61 -8 -72q0 -57 59 -57q106 0 179 113.5t73 258.5 q0 172 -113.5 301t-333.5 129q-186 0 -327.5 -102t-208 -251.5t-66.5 -315.5q0 -244 144.5 -367t359.5 -123q150 0 269.5 52.5t185.5 111.5z" />
<glyph unicode="A" horiz-adv-x="1382" d="M739 1362h23l336 -930q68 -188 96 -254q29 -63 64.5 -95t61.5 -37t71 -5l10 -8l6 -37l-4 -8q-4 0 -92 6t-111 6h-67q-16 0 -64.5 -2t-104 -6t-63.5 -4l-4 8l6 37l8 8q66 0 95.5 16.5t29.5 69.5q0 18 -5 42t-16 59.5t-23 65.5l-32 86l-34 93l-35 98h-459l-35 -98l-35 -93 l-32 -86q-11 -30 -22 -65.5t-16 -59.5t-5 -42q0 -53 29.5 -69.5t95.5 -16.5l10 -8l6 -37l-4 -8q-12 0 -62.5 4t-95.5 6t-61 2h-39q-23 0 -111 -6t-92 -6l-2 8l4 37l10 8q33 0 52.5 3t47 14.5t51.5 41t46 78.5q23 45 266 670l104 264l76 188zM664 1186l-197 -527h391z" />
<glyph unicode="B" horiz-adv-x="1202" d="M594 0h-272q-16 0 -63.5 -2t-102 -6t-64.5 -4l-4 8l6 37l10 8q80 0 109 18q41 29 51 119q4 82 4 275v512q0 129 -4 196q-4 80 -51 117q-35 20 -109 20l-10 9l-6 36l4 9q4 0 79 -6.5t110 -6.5h73q33 0 110 1t93 1q414 0 414 -309q0 -205 -187 -297q311 -55 312 -350 q0 -195 -135.5 -290t-366.5 -95zM608 680h-194q0 -418 6 -502q2 -51 19.5 -65.5t52.5 -14.5h124q78 0 148 20.5t130 88t60 174.5q0 143 -97 221t-249 78zM449 756h61q160 0 231 51q102 68 103 211q0 106 -61.5 164.5t-174.5 58.5h-184q-10 -195 -10 -274v-127q0 -53 5 -68.5 t30 -15.5z" />
<glyph unicode="C" horiz-adv-x="1337" d="M1128 1096q-8 57 -63 94t-125 50t-154 13q-203 0 -319 -92q-94 -78 -143.5 -206t-49.5 -283q0 -281 154 -434.5t399 -153.5q238 0 402 115l20 -23l-45 -92q-195 -106 -413 -107q-305 0 -492.5 189.5t-187.5 497.5q0 303 181 500.5t507 197.5q240 0 415 -70l7 -18 l-27 -187h-59z" />
<glyph unicode="D" horiz-adv-x="1503" d="M264 1161q-8 84 -51 117q-35 20 -109 20l-10 9l-6 36l4 9q12 0 55 -4.5t86 -6.5t70 -2h117q37 0 149.5 4.5t145.5 4.5q309 0 492.5 -195t183.5 -481q0 -285 -182.5 -480.5t-506.5 -195.5q-23 0 -132 2t-140 2h-108q-16 0 -63.5 -2t-102 -6t-64.5 -4l-4 8l6 37l10 8 q80 0 109 18q41 29 51 119q4 82 4 254v416q0 245 -4 313zM520 98h197q238 0 373 162t135 412q0 252 -139.5 410.5t-378.5 158.5h-283q-10 -195 -10 -391v-377q0 -248 6 -295q6 -51 25.5 -65.5t74.5 -14.5z" />
<glyph unicode="E" horiz-adv-x="1148" d="M342 1339h336q41 0 189.5 4.5t154.5 4.5l10 -21l-8 -223h-51l-8 8q-6 94 -52.5 111.5t-291.5 17.5h-197l-4 -80q-6 -113 -6 -311v-100q33 0 96 1t97 2t76 4t65.5 10t31.5 17q41 45 41 80l10 10l35 5l8 -5q-10 -154 -10 -161q0 -18 10 -183l-8 -4l-37 4l-8 7q0 61 -41 106 q-10 10 -31.5 16.5t-63.5 8.5t-74.5 3t-98.5 1h-98v-199q0 -231 10 -336q0 -39 41 -39h174q172 0 241.5 12.5t95 42t46.5 111.5l8 8h53l-36 -260l-17 -20q-6 0 -130 4t-165 4h-413q-16 0 -63.5 -2t-102 -6t-64.5 -4l-4 8l6 37l10 8q82 0 109 20q45 41 51 117q4 82 4 254v416 q0 250 -4 313q-4 74 -51 117q-27 20 -109 20l-10 9l-6 36l4 9q234 -13 250 -13z" />
<glyph unicode="F" horiz-adv-x="1083" d="M264 1161q-6 76 -51 117q-27 20 -109 20l-10 9l-6 36l4 9q10 0 64.5 -4.5t101.5 -6.5t64 -2h356q41 0 189.5 4.5t154.5 4.5l10 -21l-8 -223h-51l-8 8q-6 94 -52.5 111.5t-291.5 17.5h-197l-4 -80q-6 -113 -6 -311v-100q33 0 96 1t97 2t76 4t65.5 10t31.5 17q41 45 41 80 l10 10l35 5l8 -5q-10 -154 -10 -161q0 -18 10 -183l-8 -4l-37 4l-8 7q0 61 -41 106q-10 10 -31.5 16.5t-63.5 8.5t-74.5 3t-98.5 1h-98v-199q0 -199 6 -295q4 -76 55 -117q27 -20 123 -20l10 -8l6 -37l-4 -8q-233 12 -250 12h-38q-16 0 -63.5 -2t-102 -6t-64.5 -4l-4 8l6 37 l10 8q82 0 109 20q45 41 51 117q4 82 4 254v416q0 186 -4 313z" />
<glyph unicode="G" horiz-adv-x="1411" d="M1212 61l-8 -10l-132 -39q-42 -12 -125 -23.5t-179 -11.5q-311 0 -483 196t-172 489q0 303 181 501.5t507 198.5q205 0 413 -82l5 -18l-27 -185h-57l-9 6q-23 170 -340 170q-201 0 -317 -92q-193 -158 -193 -491q0 -268 138.5 -420t378.5 -152q141 0 251 43q16 6 17 43 q0 133 -4 187q-6 76 -51 116q-27 20 -125 21l-11 8l-6 45l4 8q10 0 62.5 -4t98.5 -6t63 -2h61q23 0 96.5 6t83.5 6l4 -8l-4 -49l-10 -8q-104 0 -111 -133q-6 -113 -6 -217q0 -75 6 -93z" />
<glyph unicode="H" horiz-adv-x="1556" d="M1468 -4l-4 -8q-10 0 -64 4t-101.5 6t-63.5 2h-39q-16 0 -63.5 -2t-101.5 -6t-64 -4l-4 8l6 37l8 8q84 0 110 20q41 37 50 117q6 61 6 254v236h-729v-195q0 -199 6 -295q4 -76 49 -117q27 -20 111 -20l8 -8l6 -37l-4 -8q-10 0 -64.5 4t-101.5 6t-64 2h-38q-16 0 -63.5 -2 t-102 -6t-64.5 -4l-4 8l6 37l10 8q82 0 109 20q45 41 51 117q4 82 4 254v416q0 250 -6 313q-6 78 -49 117q-27 20 -109 20l-10 9l-6 36l4 9q10 0 64.5 -4.5t101.5 -6.5t64 -2h38q16 0 63.5 2t102 6.5t64.5 4.5l4 -9l-6 -36l-8 -9q-84 0 -111 -20q-45 -41 -49 -117 q-6 -76 -6 -311v-92h729v90q0 217 -6 313q-4 76 -50 117q-27 20 -110 20l-8 9l-6 36l4 9q10 0 64 -4.5t101.5 -6.5t63.5 -2h39q16 0 63.5 2t101.5 6.5t64 4.5l4 -9l-6 -36l-10 -9q-82 0 -109 -20q-45 -41 -51 -117q-4 -76 -4 -311v-377q0 -231 4 -295q4 -74 51 -117 q27 -20 109 -20l10 -8z" />
<glyph unicode="I" horiz-adv-x="684" d="M590 1352l4 -9l-6 -36l-8 -9q-84 0 -111 -20q-45 -41 -49 -117q-6 -76 -6 -311v-377q0 -199 6 -295q4 -76 49 -117q27 -20 111 -20l8 -8l6 -37l-4 -8q-10 0 -64.5 4t-101.5 6t-64 2h-38q-16 0 -63.5 -2t-102 -6t-64.5 -4l-4 8l6 37l10 8q82 0 109 20q45 41 51 117 q4 82 4 254v416q0 250 -6 313q-6 78 -49 117q-27 20 -109 20l-10 9l-6 36l4 9q10 0 64.5 -4.5t101.5 -6.5t64 -2h38q16 0 63.5 2t102 6.5t64.5 4.5z" />
<glyph unicode="J" horiz-adv-x="655" d="M578 1352l4 -9l-7 -36l-8 -9q-84 0 -110 -20q-45 -41 -49 -117q-6 -76 -7 -311v-377q0 -115 -1 -209t-1 -108q-2 -174 -73.5 -310.5t-194.5 -158.5q-33 -6 -74 -6l-16 6l-4 45l8 10q61 0 88 10q25 14 47 37q29 29 44.5 76t22.5 143t8 174t1 250v416q0 217 -6 313 q-4 76 -49 117q-27 20 -109 20l-10 9l-6 36l4 9q10 0 64.5 -4.5t101.5 -6.5t63 -2h39q16 0 63.5 2t102 6.5t64.5 4.5z" />
<glyph unicode="K" horiz-adv-x="1343" d="M590 1352l4 -9l-6 -36l-8 -9q-84 0 -111 -20q-45 -41 -49 -117q-6 -76 -6 -311v-139q121 74 286 239q88 88 147.5 166t59.5 105q0 12 -3 22t-10 17.5t-13.5 12.5t-19.5 9t-19 6t-22.5 5t-22.5 5l-11 9v36l11 9q84 -12 180 -13h100q74 0 164 13l8 -9v-36l-8 -9 q-123 -29 -147 -45q-25 -14 -60 -53l-106 -119l-146 -155l-164 -168q170 -258 377 -502q94 -111 162 -156t197 -59l12 -8l4 -37l-4 -8q-31 0 -102.5 -4t-89.5 -4q-98 0 -161 45t-169 178q-53 66 -334 473h-8q-8 -6 -39 -26.5t-49 -37.5v-139q0 -199 6 -295q4 -76 49 -117 q27 -20 111 -20l8 -8l6 -37l-4 -8q-10 0 -64.5 4t-101.5 6t-64 2h-38q-16 0 -63.5 -2t-102 -6t-64.5 -4l-4 8l6 37l10 8q82 0 109 20q45 41 51 117q4 82 4 254v416q0 250 -4 313q-4 74 -51 117q-27 20 -109 20l-10 9l-6 36l4 9q10 0 64.5 -4.5t101.5 -6.5t64 -2h38 q16 0 63.5 2t102 6.5t64.5 4.5z" />
<glyph unicode="L" horiz-adv-x="1052" d="M264 1161q-6 76 -51 117q-27 20 -109 20l-10 9l-6 36l4 9q10 0 64.5 -4.5t101.5 -6.5t64 -2h38q16 0 63.5 2t102 6.5t64.5 4.5l4 -9l-6 -36l-8 -9q-84 0 -111 -20q-45 -41 -49 -117q-6 -76 -6 -311v-377q0 -104 6 -295l4 -41q0 -39 41 -39h174h97q38 0 73 4t54.5 5.5 t36.5 11.5l25 14q7 4 15 22.5t10 26.5t8.5 37t10.5 45l6 8h53l-37 -260l-16 -20q-6 0 -102.5 4t-137.5 4h-413q-16 0 -63.5 -2t-102 -6t-64.5 -4l-4 8l6 37l10 8q82 0 109 20q43 39 51 117q4 82 4 254v416q0 186 -4 313z" />
<glyph unicode="M" horiz-adv-x="1828" d="M1784 -4l-2 -8q-10 0 -64.5 4t-101.5 6t-64 2h-39q-16 0 -63 -2t-101.5 -6t-64.5 -4l-6 8l6 37l8 8q84 0 109 20q41 41 41 117q0 92 -10 254q-41 569 -56 696l-446 -1101h-86l-416 1097q-2 -25 -5 -55.5t-7 -92.5l-8 -126l-29 -377q-14 -184 -14 -295q0 -78 43 -117 q23 -20 92 -20l8 -8l6 -37l-4 -8q-6 0 -90 6t-107 6h-39q-16 0 -63 -2t-100.5 -6t-63.5 -4l-4 8l6 37l12 8q80 0 109 20q49 41 59 117q10 72 25 254l29 416q16 217 16 313q0 80 -51 117q-27 20 -109 20l-10 9l-6 36l4 9q10 0 64.5 -4.5t101.5 -6.5t63 -2h72q33 0 82 9l10 -7 q2 -20 11.5 -53t24.5 -79t30 -86l40 -100q23 -60 36 -97l139 -379q39 -109 117 -285q33 49 206.5 490.5t194.5 586.5l10 9q45 -8 70 -9h74q16 0 63 2t101.5 6.5t64.5 4.5l4 -9l-6 -36l-10 -9q-84 0 -109 -20q-51 -41 -51 -117q0 -86 16 -311l25 -377q16 -215 28 -295 q10 -78 58 -117q27 -20 110 -20l11 -8z" />
<glyph unicode="N" horiz-adv-x="1527" d="M1448 1352l2 -9l-4 -36l-10 -9q-84 0 -109 -20q-41 -33 -47 -117q-6 -76 -6 -311v-361q0 -313 14 -497l-16 -10l-119 8l-20 24l-738 1092q-2 -53 -2 -256v-377q0 -231 6 -295q8 -86 52 -117q29 -20 110 -20l10 -8l7 -37l-5 -8q-12 0 -60 4t-92 6t-61 2h-38 q-16 0 -63.5 -2t-102 -6t-64.5 -4l-4 8l6 37l10 8q80 0 109 20q43 33 51 117q4 41 4 254v416q0 250 -4 313q-6 82 -51 117q-27 20 -109 20l-10 9l-6 36l4 9q6 0 90 -6.5t107 -6.5h71q35 0 84 9l11 -7q16 -63 264 -458l183 -279l166 -233l75 -101q2 39 2 162v416 q0 217 -6 313q-6 78 -49 117q-27 20 -111 20l-8 9l-6 36l4 9q8 0 88 -6.5t102 -6.5h96q76 1 193 13z" />
<glyph unicode="O" horiz-adv-x="1562" d="M782.5 1362q307.5 0 488.5 -199.5t181 -488.5t-182.5 -493t-501.5 -204q-311 0 -483 196t-172 486q0 301 181 502t488.5 201zM780 86q236 0 375 168t139 418q0 254 -142 417.5t-382 163.5q-236 0 -367 -160.5t-131 -418.5q0 -270 140.5 -429t367.5 -159z" />
<glyph unicode="P" horiz-adv-x="1122" d="M594 -4l-4 -8q-10 0 -64.5 4t-101.5 6t-64 2h-38q-16 0 -63.5 -2t-102 -6t-64.5 -4l-4 8l6 37l10 8q80 0 109 18q41 29 51 119q4 82 4 254v533q0 129 -4 196q-4 78 -51 117q-35 20 -109 20l-10 9l-6 36l4 9q4 0 79 -6.5t110 -6.5h73q33 0 110 1t95 1q502 0 502 -370 q0 -113 -48 -195t-129 -123t-168 -58t-188 -17h-114q0 -313 6 -400q4 -78 49 -117q35 -20 111 -20l8 -8zM492 668h108q319 0 320 293q0 137 -84 208.5t-234 71.5h-178q-10 -195 -10 -274v-224q0 -51 12.5 -63t65.5 -12z" />
<glyph unicode="Q" horiz-adv-x="1562" d="M782.5 1362q307.5 0 488.5 -199.5t181 -488.5q0 -274 -169 -476t-466 -218q150 -2 345.5 -75t299.5 -73q88 0 154 39l6 -4l8 -17l-2 -8q-109 -125 -248 -125q-76 0 -176 45t-220 90.5t-241 45.5q-166 0 -227 -43l-6 2l-10 28l2 6q111 76 254 86q-305 2 -474 198t-169 484 q0 301 181 502t488.5 201zM780 86q236 0 375 168t139 418q0 254 -142 417.5t-382 163.5q-236 0 -367 -160.5t-131 -418.5q0 -270 140.5 -429t367.5 -159z" />
<glyph unicode="R" horiz-adv-x="1298" d="M596 -4l-4 -8q-10 0 -64.5 4t-101.5 6t-64 2h-38q-16 0 -63.5 -2t-102 -6t-64.5 -4l-4 8l6 37l10 8q82 0 109 18q41 29 51 119q4 82 4 254v533q0 96 -6 196q-6 80 -49 117q-35 20 -109 20l-10 9l-6 36l4 9q4 0 79 -6.5t110 -6.5h73q33 0 110 1t95 1q260 0 381 -94 t121 -253.5t-101.5 -253t-242.5 -126.5q141 -197 278 -358q94 -111 162 -156t197 -59l12 -8l4 -37l-4 -8q-33 0 -102.5 -4t-89.5 -4q-98 0 -160 45t-170 178q-23 23 -281 397h-149q0 -336 6 -422q4 -78 49 -117q35 -20 111 -20l8 -8zM494 690h108q319 0 320 291 q0 123 -85 191.5t-233 68.5h-178q-10 -195 -10 -274v-201q0 -53 12.5 -64.5t65.5 -11.5z" />
<glyph unicode="S" horiz-adv-x="1126" d="M283 1040q0 -104 71.5 -152t270.5 -112q90 -29 152.5 -57.5t127 -75.5t97 -118.5t32.5 -166.5q0 -133 -70.5 -221t-178 -124t-244.5 -36q-225 0 -420 101l-8 26l34 220h52l10 -13q20 -241 343 -241h3q156 0 239 71.5t83 190.5q0 47 -12.5 85t-43 67.5t-54.5 49t-78 41 t-78.5 30.5t-90.5 30q-188 59 -287.5 143t-99.5 234q0 182 120 266t316 84q213 0 369 -70l8 -22l-28 -183h-58l-10 11q-4 66 -57.5 106.5t-108.5 51t-117 10.5q-133 0 -208.5 -60t-75.5 -166z" />
<glyph unicode="T" horiz-adv-x="1206" d="M887 -4l-4 -8q-10 0 -61.5 4t-97.5 6t-62 2h-117q-16 0 -61.5 -2t-95.5 -6t-62 -4l-4 8l6 37l10 8q106 0 131 20q51 41 57 117q6 61 6 254v416q0 184 -6 393h-22q-326 0 -361 -22q-45 -25 -55 -107l-8 -8h-47l14 233l8 19l13 6q55 -23 405 -23h258q352 0 406 23l12 -6 l8 -19l17 -233h-50l-8 8q-10 82 -55 107q-34 22 -333 22h-26h-22q-4 -156 -4 -391v-377q0 -199 6 -295q6 -76 57 -117q25 -20 131 -20l11 -8z" />
<glyph unicode="U" horiz-adv-x="1480" d="M1423 1352l4 -9l-6 -36l-8 -9q-84 0 -110 -20q-45 -41 -50 -117q-6 -96 -6 -313v-393q0 -211 -126 -344.5t-367 -133.5q-272 0 -396.5 130.5t-124.5 347.5v393q0 250 -4 313q-4 74 -51 117q-27 20 -108 20l-11 9l-6 36l4 9q10 0 64.5 -4.5t101.5 -6.5t64 -2h39q16 0 63 2 t101.5 6.5t64.5 4.5l4 -9l-6 -36l-8 -9q-84 0 -111 -20q-45 -41 -49 -117q-6 -76 -6 -311v-338q0 -414 375 -414q377 0 376 414v338q0 236 -6 311q-6 80 -51 117q-25 20 -108 20l-11 9l-6 36l4 9q2 0 93.5 -6.5t113.5 -6.5h45q16 0 61.5 2t95.5 6.5t62 4.5z" />
<glyph unicode="V" horiz-adv-x="1380" d="M643 -23h-25l-333 930q-72 193 -99 254q-29 63 -64.5 96t-60 37t-71.5 4l-10 9l-5 36l2 9q4 0 92.5 -6.5t110.5 -6.5h70q16 0 64 2t103.5 6.5t63.5 4.5l4 -9l-6 -36l-10 -9q-66 0 -95.5 -16t-29.5 -70q0 -18 5 -41.5t16.5 -59.5t22.5 -65l32 -86q20 -57 35 -94l139 -377 l123 -337l127 337l139 377l35 94l32 86q11 29 22 65t16.5 59.5t5.5 41.5q0 53 -30 69.5t-95 16.5l-11 9l-4 36l4 9q12 0 61.5 -4.5t94.5 -6.5t62 -2h38q23 0 111 6.5t92 6.5l4 -9l-6 -36l-10 -9q-45 0 -69.5 -5t-60.5 -36.5t-67 -95.5q-37 -84 -266 -669l-75 -191l-77 -195 q-32 -79 -40 -106z" />
<glyph unicode="W" horiz-adv-x="2244" d="M643 -23h-25l-333 930q-72 193 -99 254q-29 63 -64.5 96t-60 37t-71.5 4l-10 9l-5 36l2 9q4 0 92.5 -6.5t110.5 -6.5h70q16 0 64 2t103.5 6.5t63.5 4.5l4 -9l-6 -36l-10 -9q-66 0 -95.5 -16t-29.5 -70q0 -18 5 -41.5t16.5 -59.5t22.5 -65l32 -86q20 -57 35 -94l139 -377 l123 -337l127 337l139 377l35 94l34 92l23 66q-2 4 -8 19.5t-8 23.5q-29 72 -62.5 104.5t-103.5 32.5l-10 9l-4 36l2 9q8 0 84.5 -6.5t99.5 -6.5h68q2 0 235 13l4 -9l-6 -36l-10 -9q-51 0 -97.5 -30.5t-46.5 -79.5q0 -20 5 -29q8 -37 102 -293l139 -377l64 -175l59 -162 l127 337l139 377l35 94l32 86q11 29 22.5 65t16.5 59.5t5 41.5q0 53 -30 69.5t-95 16.5l-8 9l-6 36l4 9q12 0 61 -4.5t94 -6.5t62 -2h39q23 0 110.5 6.5t91.5 6.5l5 -9l-7 -36l-10 -9q-45 0 -69.5 -5t-60.5 -36.5t-66 -95.5q-37 -84 -267 -669l-74 -191l-78 -195 q-32 -79 -40 -106l-107 -23h-24l-357 988q-27 -63 -184 -473l-110 -280q-72 -181 -82 -212z" />
<glyph unicode="X" horiz-adv-x="1355" d="M440 1274q-23 -16 -22 -35q0 -23 18 -49q119 -213 254 -410q158 203 234 379q12 25 12 58q0 18 -7 32.5t-24.5 21.5t-31 11t-39.5 9l-35 7l-11 9v36l11 9q80 -12 188 -13h119q96 0 186 13l8 -9v-36l-8 -9q-88 -14 -138 -50t-114 -126l-295 -428l169 -246l142 -210 q46 -68 56 -80q33 -37 52.5 -53.5t64.5 -35t117 -28.5l18 -14v-29l-12 -12q-131 16 -215 16h-82q-84 0 -232 -16l-10 12v31l10 12q51 4 88 24.5t37 53.5q0 82 -278 471q-242 -311 -299 -430q-8 -16 -9 -37q0 -37 28 -53.5t126 -28.5l12 -12v-29l-12 -12q-78 12 -217 12h-96 q-111 0 -201 -12l-10 12v27l16 14q94 14 140.5 42t111.5 110q90 115 348 483q-123 170 -344 506q-39 55 -67 78q-37 29 -127 38l-17 9v36l13 9q94 -12 180 -13h88q113 0 227 13l10 -9v-36l-10 -9q-88 -4 -121 -24z" />
<glyph unicode="Y" horiz-adv-x="1241" d="M874 -4l-4 -8q-10 0 -64 4t-101.5 6t-63.5 2h-39q-16 0 -64.5 -2t-103.5 -6t-63 -4l-2 8l4 37l10 8q84 0 109 20q45 37 51 117q6 61 6 254v80q0 78 -49 158q-137 242 -314 512q-29 45 -65 78q-37 29 -127 38l-17 9v36l11 9q131 -16 182 -17h86q78 0 229 17l9 -9v-36 l-9 -9q-88 -4 -120 -24q-25 -18 -25 -35q0 -18 20 -49l283 -510q203 346 254 475q20 41 21 72q0 25 -15.5 38t-33 17t-50.5 8t-47 8l-8 9v36l8 9q80 -12 189 -13h118q98 0 189 13l8 -9v-36l-8 -9q-94 -14 -141.5 -44.5t-106.5 -118.5q-117 -172 -299 -492q-29 -45 -29 -102 v-72q0 -195 6 -291q6 -80 52 -117q25 -20 108 -20l10 -8z" />
<glyph unicode="Z" horiz-adv-x="1257" d="M127 1104l-12 14l32 221l17 17q346 -16 663 -17h136q92 0 167 17l17 -23l-10 -51q-115 -115 -451 -610.5t-336 -550.5l17 -23h151q141 0 212 1t145.5 7.5t103.5 14.5t59.5 28.5t41 45t20.5 65.5l12 12h55l-37 -264l-18 -20q-221 12 -479 12h-328q-72 0 -211 -12l-20 22 v47q127 125 451.5 607.5t324.5 554.5l-21 22h-270q-238 0 -302 -19.5t-81 -107.5l-12 -10h-37z" />
<glyph unicode="[" horiz-adv-x="581" d="M532 1546l3 -8l-5 -37l-10 -8q-123 0 -147 -20q-45 -37 -51 -117q-6 -76 -7 -369v-514q0 -395 7 -489q6 -80 51 -117q25 -20 147 -21l10 -8l5 -37l-3 -8q-12 0 -60 4t-91 6t-59 2h-156l-4 9q25 199 24 618v553q0 373 -24 541l4 8h156q16 0 59 2t91 6t60 4z" />
<glyph unicode="\" horiz-adv-x="884" d="M807 -109l-2 -8h-160l-6 8q-45 190 -201 619l-137 377q-150 401 -221 543v8h160l6 -8q31 -143 174 -543l135 -377q150 -412 252 -619z" />
<glyph unicode="]" horiz-adv-x="581" d="M47 1538l2 8q12 0 60.5 -4t91.5 -6t59 -2h156l4 -8q-25 -168 -25 -541v-553q0 -420 25 -618l-4 -9h-156q-16 0 -59 -2t-91.5 -6t-60.5 -4l-2 8l4 37l10 8q123 0 148 21q45 37 51 117q6 94 6 489v514q0 293 -6 369q-6 80 -51 117q-25 20 -148 20l-10 8z" />
<glyph unicode="^" horiz-adv-x="712" d="M348 1378h17l225 -202l6 -15l-12 -39l-15 -6l-213 125l-213 -125l-14 6l-12 39l6 15z" />
<glyph unicode="_" horiz-adv-x="911" d="M12 0h887v-106h-887v106z" />
<glyph unicode="`" horiz-adv-x="448" d="M436 1130l-16 -6l-412 158q-8 18 -8 39q0 68 72 72l370 -207l7 -15z" />
<glyph unicode="a" horiz-adv-x="1015" d="M676 -6l-12 20q6 29 16 158q-59 -82 -150.5 -138.5t-193.5 -56.5q-123 0 -191.5 78t-68.5 193q0 143 127 225q66 41 175 64.5t176 28.5t114 5h28q-2 133 -24 193q-43 117 -211 117q-86 0 -154.5 -34t-75.5 -118l-8 -6h-45l-18 151l6 13q25 27 126 56.5t200 29.5 q154 0 250 -81t96 -230q0 -125 -4.5 -277t-4.5 -225q8 -82 31 -101q24 -22 106 -22h7l8 -8l2 -29l-2 -8q-98 8 -164 8q-75 0 -141 -6zM664 236q20 37 22 59l10 205h-18q-457 0 -457 -240q0 -78 44 -124t118 -46q78 0 162 48.5t119 97.5z" />
<glyph unicode="b" horiz-adv-x="1224" d="M365 14l-15 -14h-94q-55 0 -211 -8l-2 8l2 29l8 8q88 0 113 22q23 20 31 101l2 18q4 102 4 301v492q0 250 -6 385q-2 33 -27 63q-31 35 -115 35l-8 8v27l8 8h37q129 0 180 8l72 11l12 -19q-16 -37 -16 -158q0 -27 -1 -129t-1 -235v-197q131 195 340 195 q219 0 334.5 -141.5t115.5 -344.5q0 -133 -42 -235t-110.5 -159.5t-144 -86.5t-151.5 -29q-219 0 -336 191q1 -78 21 -154zM973 483q0 154 -79 263.5t-226 109.5q-143 0 -236.5 -96t-93.5 -176v-224q18 -92 102 -181t224 -89q152 0 230.5 115.5t78.5 277.5z" />
<glyph unicode="c" horiz-adv-x="1038" d="M913 723h-43l-8 6q0 59 -48 95t-99 46.5t-107 10.5q-176 0 -270 -117t-94 -285t101 -282.5t294 -114.5q158 0 301 76l21 -21l-31 -57q-51 -37 -147.5 -70t-192.5 -33q-207 0 -354.5 139.5t-147.5 354.5q0 221 151.5 361.5t372.5 140.5q184 0 318 -74l6 -18z" />
<glyph unicode="d" horiz-adv-x="1224" d="M874 -6l-14 20q8 31 19 156q-127 -193 -334 -193q-219 0 -334 140.5t-115 345.5q0 133 42 235.5t109.5 159.5t143.5 86t152 29q225 0 342 -193v191q0 297 -6 385q-2 33 -27 63q-31 35 -115 35l-8 8v27l8 8h37q129 0 180 8l72 11l12 -19q-14 -31 -14 -158q0 -27 -2 -129 t-2 -235v-447q0 -176 8 -368q8 -82 29 -101q26 -22 105 -22h7l9 -8l4 -29l-4 -8q-98 8 -164 8q-77 0 -140 -6zM252 467q0 -154 79 -263.5t226 -109.5q137 0 229.5 90t98.5 172v228q-12 88 -97.5 182t-226.5 94q-152 0 -230.5 -115.5t-78.5 -277.5z" />
<glyph unicode="e" horiz-adv-x="1075" d="M997 600l-14 -49l-33 -14q-74 0 -227.5 -2.5t-228.5 -2.5h-242q-2 -18 -2 -53q0 -168 99.5 -278.5t301.5 -110.5q164 0 271 62l20 -13v-37l-20 -22q-131 -102 -340 -103q-215 0 -351.5 137.5t-136.5 356.5q0 221 137.5 361.5t339.5 140.5q61 0 121 -15.5t126.5 -52.5 t114.5 -115.5t64 -189.5zM573 881q-125 0 -206.5 -75t-104.5 -190h80q207 0 434 13q45 2 45 43q0 18 -8 43q-23 78 -85.5 122t-154.5 44z" />
<glyph unicode="f" horiz-adv-x="688" d="M641 856l-10 -10h-260v-318q0 -268 8 -368q8 -82 31 -101q30 -22 136 -22h9l10 -10l4 -27l-4 -8q-156 8 -225 8h-49q-57 0 -213 -8l-2 8l2 29l8 8q88 0 113 22q25 25 31 93.5t6 326.5v367h-152l-8 10v68l8 8h152v117q0 221 83.5 349t237.5 128q102 0 217 -62l10 -20 l-24 -158h-53q-8 63 -59.5 101t-119.5 38q-55 0 -90 -21.5t-48 -68.5t-16 -81.5t-3 -104.5v-217h260l10 -8v-68z" />
<glyph unicode="g" horiz-adv-x="1005" d="M963 856l-11 -10h-192q92 -111 92 -254q0 -145 -96.5 -241.5t-280.5 -96.5q-12 0 -33.5 1t-31.5 1q-31 -12 -50.5 -36.5t-19.5 -43.5q0 -43 117 -57l166 -21q143 -16 232 -85.5t89 -190.5q0 -135 -106 -228q-123 -102 -349 -102q-207 0 -312 82t-105 199q0 84 56 151.5 t146 100.5q-98 41 -98 114q0 49 35 80t100 60q-106 39 -157.5 124.5t-51.5 198.5q0 158 98.5 263.5t270.5 105.5q98 0 180 -39h301l11 -8v-68zM479 340q109 0 166 72.5t57 179.5q0 115 -60 202t-175 87q-109 0 -164 -81t-55 -190q0 -111 58 -190.5t173 -79.5zM535 -20 l-105 10q-109 -4 -170 -63.5t-61 -131.5q0 -78 79.5 -127t223.5 -49q137 0 222 48t85 134q0 148 -274 179z" />
<glyph unicode="h" horiz-adv-x="1220" d="M887 -6l-15 20q14 47 19 146q8 150 8 307q0 125 -16 199q-18 92 -82 141t-150 49q-125 0 -219 -95t-94 -171q0 -238 8 -430q8 -80 31 -101q26 -22 100 -22h6l11 -10l4 -27l-4 -8q-156 8 -209 8h-29q-55 0 -211 -8l-2 8l2 29l8 8q88 0 112.5 22.5t31.5 100.5q6 104 6 319 v492q0 254 -6 385q-2 33 -27 63q-31 35 -115 35l-8 8v27l8 8h37q129 0 180 8l72 11l12 -19q-12 -27 -12 -158q0 -27 -3 -129t-3 -235v-217q125 215 350 215q127 0 226.5 -73t115.5 -210q8 -72 8 -233v-289q0 -82 31 -109q26 -22 108 -22h7l6 -8l4 -29l-4 -8q-94 8 -162 8 q-78 0 -141 -6z" />
<glyph unicode="i" horiz-adv-x="567" d="M522 0l-4 -8q-156 8 -209 8h-28q-55 0 -211 -8l-2 8l2 29l8 8q88 0 112 22q23 20 31 101q6 68 6 174v252q0 123 -6 205q-6 43 -26 63q-29 35 -115 35l-8 8v29l8 6h37q129 0 180 8l72 10l12 -18q-14 -31 -14 -154q0 -12 -2.5 -67.5t-2.5 -122.5v-230q0 -84 9 -198 q6 -78 30 -101q26 -22 100 -22h7l10 -10zM174 1292q0 41 28.5 71t67.5 30q41 0 71 -31t30 -70t-30 -67.5t-71 -28.5t-68.5 28.5t-27.5 67.5z" />
<glyph unicode="j" horiz-adv-x="512" d="M47 897v29l8 6h37q129 0 180 8l72 10l10 -18q-4 -12 -12 -158q-4 -98 -4 -299v-483q0 -199 -69.5 -340t-196.5 -178q-27 -6 -74 -6l-16 4l-5 39l9 10q90 0 135 49q72 78 76 303q6 160 6 545q0 276 -6 370q-2 41 -27 66q-29 35 -115 35zM150 1292q0 41 28.5 71t67.5 30 q41 0 70.5 -31t29.5 -70t-29.5 -67.5t-70.5 -28.5t-68.5 28.5t-27.5 67.5z" />
<glyph unicode="k" horiz-adv-x="1077" d="M47 1462v27l8 8h37q129 0 180 8l72 11l12 -19q-12 -27 -12 -158q0 -27 -3 -129t-3 -235v-488l244 226l28 27l48 44q22 21 28 29q18 23 19 37q0 35 -95 49l-8 8v25l8 8q102 -12 158 -12h57q53 0 160 12l6 -8v-29l-10 -10q-86 -20 -100 -29q-106 -66 -256 -211l-84 -78 q45 -70 75 -104l183 -225q6 -6 31 -39l34 -43q8 -10 32 -36t39 -36l37 -26q23 -15 46.5 -21t48.5 -8l6 -8l4 -29l-4 -8q-47 -6 -164 -6q-57 0 -108 51q-80 80 -107 113l-164 210q-61 80 -98 117l-94 -94q0 -72 8 -223q2 -76 31 -101q26 -22 100 -22h6l11 -10l4 -27l-4 -8 q-156 8 -209 8h-29q-55 0 -211 -8l-2 8l2 29l8 8q88 0 112.5 22.5t31.5 100.5q6 104 6 319v492q0 254 -6 385q-2 33 -27 63q-31 35 -115 35z" />
<glyph unicode="l" horiz-adv-x="563" d="M59 1462v27l9 8h36q129 0 181 8l73 11l13 -19q-6 -12 -15 -158q-6 -88 -6 -364v-447q0 -176 8 -368q8 -80 31 -101q26 -22 100 -22h7l10 -10l4 -27l-4 -8q-156 8 -209 8h-29q-55 0 -211 -8l-2 8l2 29l9 8q88 0 112.5 22.5t30.5 100.5q6 104 6 319v492q0 297 -6 385 q-2 33 -27 63q-31 35 -114 35z" />
<glyph unicode="m" horiz-adv-x="1890" d="M72 897v29l8 6h37q129 0 180 8l72 10l12 -18q-12 -27 -12 -158l-1 -2q-1 -2 -1 -4q115 205 321 205q115 0 205 -57.5t125 -174.5q59 109 135 170.5t201 61.5q127 0 223 -72t121 -213q12 -72 12 -231v-297q0 -76 31 -101q24 -22 105 -22h7l9 -8l4 -29l-4 -8q-98 8 -164 8 q-76 0 -139 -6l-15 20q14 47 19 146q6 119 6 317q0 133 -17 209q-18 80 -79.5 125t-143.5 45q-104 0 -183 -68.5t-108 -150.5q6 -59 6 -180v-297q0 -74 33 -101q26 -22 100 -22h7l10 -10l4 -27l-4 -8q-156 8 -209 8h-29q-55 0 -211 -8l-4 8l4 29l9 8q88 0 112 22 q23 20 29 101q8 160 8 317q0 152 -16 209q-23 82 -83.5 126t-139.5 44q-123 0 -212.5 -94t-89.5 -174v-230q0 -84 9 -198q6 -78 30 -101q26 -22 100 -22h7l10 -10l4 -27l-4 -8q-156 8 -209 8h-28q-55 0 -211 -8l-2 8l2 29l8 8q88 0 112 22q23 20 31 101q6 68 6 174v252 q0 123 -6 205q-6 43 -26 63q-29 35 -115 35z" />
<glyph unicode="n" horiz-adv-x="1245" d="M522 0l-4 -8q-156 8 -209 8h-28q-55 0 -211 -8l-2 8l2 29l8 8q88 0 112 22q23 20 31 101q6 68 6 174v252q0 150 -6 205q-6 43 -26 63q-29 35 -115 35l-8 8v29l8 6h37q129 0 180 8l72 10l12 -18q-8 -25 -14 -166q123 207 346 207q127 0 226 -73t116 -212q8 -72 8 -231 q0 -49 1 -148.5t1 -148.5q8 -82 29 -101q26 -22 107 -22h7l6 -8l5 -29l-5 -8q-94 8 -161 8q-78 0 -142 -6l-14 20q14 47 18 146q8 150 9 307q0 125 -17 199q-18 92 -81.5 141t-149.5 49q-125 0 -219.5 -93t-94.5 -173v-232q0 -123 9 -198q8 -80 30 -101q26 -22 100 -22h7 l10 -10z" />
<glyph unicode="o" horiz-adv-x="1193" d="M596 973q233 0 369.5 -149.5t136.5 -358.5q0 -203 -131 -345.5t-371 -142.5q-244 0 -376 146.5t-132 351.5q0 209 137.5 353.5t366.5 144.5zM598 57q164 0 255 121t91 287q0 162 -97 292t-257 130q-166 0 -255 -122t-89 -286q0 -162 97 -292t255 -130z" />
<glyph unicode="p" horiz-adv-x="1222" d="M45 897v29l8 6h37q129 0 180 8l72 10l12 -18q-12 -25 -12 -146q131 186 334 187q219 0 334.5 -141.5t115.5 -344.5q0 -133 -42 -235t-110.5 -159.5t-144 -86.5t-151.5 -29q-225 0 -342 201v-188q0 -168 8 -357q8 -82 31 -98q26 -24 100 -24h6l11 -9l4 -28l-4 -6 q-20 0 -104.5 3t-104.5 3h-29q-20 0 -106.5 -3t-104.5 -3l-2 6l2 30l8 7q88 0 113 24q25 20 31 98q6 104 6 310v477q0 240 -6 371q-2 39 -27 63q-29 35 -115 35zM971 483q0 154 -79 263.5t-226 109.5q-139 0 -231.5 -91t-98.5 -173v-225q14 -90 99 -183.5t227 -93.5 q152 0 230.5 115.5t78.5 277.5z" />
<glyph unicode="q" horiz-adv-x="1222" d="M1180 -526l-4 -6q-20 0 -104.5 3t-104.5 3h-29q-20 0 -106.5 -3t-104.5 -3l-2 6l2 30l8 7q88 0 113 24q25 20 31 98q6 70 6 310v235q-131 -201 -340 -201q-219 0 -334 140.5t-115 345.5q0 133 42 235.5t109.5 159.5t143.5 86t152 29q219 0 338 -182q0 111 -13 141l13 18 l71 -10q49 -8 178 -8h37l9 -6v-29l-9 -8q-84 0 -114 -35q-23 -23 -25 -63q-8 -133 -8 -369v-432q0 -168 8 -357q8 -82 31 -98q26 -24 100 -24h6l11 -9zM252 467q0 -154 79 -263.5t226 -109.5q139 0 230.5 91t97.5 173v226q-12 88 -97.5 182t-226.5 94q-152 0 -230.5 -115.5 t-78.5 -277.5z" />
<glyph unicode="r" horiz-adv-x="833" d="M72 897v29l8 6h37q129 0 180 8l72 10l12 -18q-16 -57 -16 -207q29 55 48 85t55 75t79 66.5t92 21.5q39 0 84 -11.5t61 -29.5l17 -19l-25 -157h-67q-16 75 -109 75h-2q-96 0 -166 -99t-70 -191v-183q0 -63 7 -180l2 -18q8 -82 30 -101q30 -22 137 -22h9l10 -10l4 -27 l-4 -8q-156 8 -225 8h-49q-57 0 -213 -8l-2 8l2 29l8 8q88 0 112 22q23 20 31 101l2 18q4 53 4 156v252q0 123 -6 205q-6 43 -26 63q-29 35 -115 35z" />
<glyph unicode="s" horiz-adv-x="899" d="M408 575l145 -32q266 -59 266 -264q0 -133 -105.5 -217.5t-281.5 -84.5q-182 0 -326 74l-4 19l31 211h47l6 -9q0 -98 62.5 -154.5t177.5 -56.5q127 0 185.5 53.5t58.5 123.5q0 35 -5.5 59.5t-39 59t-99.5 51.5l-196 49q-223 57 -224 241q0 131 95.5 203t244.5 72 q170 0 304 -74l6 -18l-23 -158h-43l-8 6q0 84 -78 125t-160 41q-96 0 -144 -48t-48 -118q0 -117 156 -154z" />
<glyph unicode="t" horiz-adv-x="671" d="M621 856l-11 -10h-266q0 -156 -1 -308.5t-2 -241.5t-1 -93q0 -133 102 -133q82 0 156 43l18 -15l-26 -49q-86 -72 -201 -72q-190 0 -190 205q0 14 3 107.5t6 248t3 308.5h-148l-8 10v68l8 8h148q0 135 -10 293l14 12l29 2q78 8 104 23l19 -9q-23 -117 -23 -321h266l11 -8 v-68z" />
<glyph unicode="u" horiz-adv-x="1220" d="M868 -6l-12 20q2 12 18 162q-125 -199 -339 -199q-291 0 -340 269q-4 29 -11 229q-2 72 -2 316q0 33 -26 65q-29 33 -115 33l-6 8v29l6 6h37q129 0 180 8l72 10l12 -18q-12 -27 -12 -158q0 -49 -3 -161.5t-3 -147.5q0 -125 16 -199q18 -92 81.5 -141t149.5 -49 q115 0 202 81t108 162v267q0 94 -9 205q-6 45 -24 63q-29 35 -115 35l-8 8v29l8 6h37q129 0 178 8l72 10l12 -18q-12 -27 -12 -158q0 -12 -2 -65.5t-2 -120.5v-230q0 -27 6 -198q8 -82 31 -101q24 -22 105 -22h7l9 -8l4 -29l-4 -8q-98 8 -164 8q-76 0 -142 -6z" />
<glyph unicode="v" horiz-adv-x="1054" d="M600 0l-129 -10l-20 10l-123 328q-8 23 -37 94l-70 171l-59 148q-20 49 -37 78q-41 66 -115 74l-12 10v29l8 8q90 -12 146 -12h79q59 0 166 12l9 -8v-25l-9 -8q-104 -10 -104 -80q0 -66 141 -432l101 -266l98 235q4 8 23 56l32 80q12 30 31.5 84.5t31 92.5t20.5 80t9 70 q0 68 -106 80l-8 8v25l8 8q80 -12 149 -12h84q39 0 142 12l8 -8v-29l-13 -10q-72 -10 -108 -74q-27 -45 -67 -136t-69 -168l-62 -163q-31 -86 -33 -90z" />
<glyph unicode="w" horiz-adv-x="1677" d="M1098 -10l-19 10l-241 623l-56 -147l-54 -141q-21 -56 -28 -73l-104 -262l-125 -10l-20 10l-123 328l-36 90l-70 174l-60 149q-20 49 -37 78q-41 66 -115 74l-12 10v29l8 8q90 -12 146 -12h79q59 0 166 12l9 -8v-25l-9 -8q-104 -10 -104 -80q0 -18 12 -63t33 -104 l38 -107l36 -101q20 -51 22 -57l101 -266l98 235q129 313 145 412q-10 35 -17 54.5t-34 42t-65 28.5l-13 10v29l8 8q90 -12 127 -12h80q70 0 146 12l8 -8v-25l-8 -8q-90 -10 -90 -80q0 -18 12 -63t32 -104l38 -107l38 -101q19 -51 21 -57l100 -266l99 235q4 8 24 56l31 80 q12 30 31.5 84.5t31 92.5t20.5 80t9 70q0 68 -107 80l-8 8v25l8 8q84 -12 150 -12h84q33 0 139 12l6 -8v-29l-10 -10q-74 -8 -110 -74q-35 -57 -85 -180l-97 -245q-46 -122 -50 -132l-104 -262z" />
<glyph unicode="x" horiz-adv-x="1075" d="M358 840q0 -35 195 -289q72 90 127 176t55 104q0 37 -14 48.5t-66 19.5l-8 8v25l8 8q82 -12 131 -12h84q37 0 144 12l8 -8v-29l-12 -10q-68 -10 -107 -33.5t-80 -81.5l-217 -299q242 -324 266 -342q66 -86 166 -100l13 -10v-29l-9 -8q-90 12 -153 12h-80q-53 0 -160 -12 l-8 8v25l8 8q35 2 59.5 16t24.5 31q0 43 -213 330q-225 -272 -225 -308q0 -31 23.5 -45t74.5 -22l8 -8v-25l-8 -8q-55 8 -129 8h-84q-76 0 -143 -8l-8 8v29l12 10q66 10 95.5 28.5t74.5 75.5q174 231 250 340l-254 336q-53 66 -135 74l-13 10v29l9 8q90 -12 153 -12h80 q51 0 158 12l8 -8v-25l-8 -8q-101 -8 -101 -59z" />
<glyph unicode="y" horiz-adv-x="1052" d="M84 -469q68 0 111 14.5t94 65.5q76 78 114 180l66 166l-141 371l-166 413q-20 49 -37 78q-41 66 -115 74l-12 10v29l8 8q90 -12 146 -12h79q59 0 166 12l9 -8v-25l-9 -8q-104 -10 -104 -80q0 -78 141 -432l103 -266l96 235q4 8 23 56l32 80q12 30 31.5 84.5t31 92.5 t20.5 80t9 70q0 68 -106 80l-8 8v25l8 8q80 -12 149 -12h84q35 0 137 12l9 -8v-29l-11 -10q-37 -4 -56 -19.5t-42 -54.5q-27 -45 -66 -136l-68 -167l-62 -163q-33 -87 -35 -91l-201 -500q-90 -223 -342 -288q-27 -6 -74 -6l-16 4l-4 49z" />
<glyph unicode="z" horiz-adv-x="999" d="M117 707l-15 10l17 215l6 12q242 -12 545 -12h92q70 0 119 12l12 -16l-6 -33q-80 -82 -306.5 -417t-226.5 -374l11 -14h98q176 0 242.5 10.5t97.5 39t59 108.5l6 8h45l-32 -244l-11 -20q-8 0 -240.5 4t-260.5 4h-66q-111 0 -209 -8l-14 16v29q94 92 313 418.5t219 386.5 l-14 14h-184q-152 0 -195 -27.5t-59 -113.5l-8 -8h-35z" />
<glyph unicode="{" horiz-adv-x="555" d="M477 1556l4 -22q-94 -10 -123.5 -67.5t-29.5 -161.5q0 -23 2 -138.5t2 -154.5q0 -297 -193 -342q193 -45 193 -342q0 -39 -2 -155t-2 -138q0 -104 29.5 -161.5t123.5 -68.5l-4 -22q-164 0 -219 72.5t-55 218.5q0 27 2 144.5t2 158.5q0 57 -3 92t-15.5 85t-45 76.5 t-84.5 28.5v21q51 2 84 29.5t45.5 81t15.5 87t3 91.5q0 43 -2 157.5t-2 139.5q0 145 55 217.5t219 72.5z" />
<glyph unicode="|" horiz-adv-x="483" d="M164 -233l-2 8q25 199 24 618v631q0 373 -24 541l2 8h155l5 -8q-25 -168 -25 -541v-631q0 -420 25 -618l-5 -8h-155z" />
<glyph unicode="}" horiz-adv-x="550" d="M72 1534l4 22q164 0 219 -72.5t55 -217.5q0 -25 -1 -139.5t-1 -157.5q0 -45 1 -72t8.5 -73t21.5 -72.5t44 -48t71 -23.5v-21q-41 -2 -71 -22.5t-44 -46t-21.5 -70.5t-8.5 -71.5t-1 -71.5q0 -41 1 -159t1 -144q0 -145 -55 -218t-219 -73l-4 22q94 10 124.5 67.5 t30.5 162.5q0 23 -2 138.5t-2 154.5q0 297 193 342q-193 45 -193 342q0 39 2 154.5t2 138.5q0 104 -30.5 161.5t-124.5 67.5z" />
<glyph unicode="~" horiz-adv-x="980" d="M846 590q0 -14 -16.5 -49t-61.5 -72t-102 -37q-25 0 -184.5 9.5t-207 9.5t-69 -11.5t-43.5 -40.5l-27 15q0 41 54.5 99t132.5 58q29 0 165 -9t201 -9q96 0 133 53z" />
<glyph unicode="&#xa2;" horiz-adv-x="1038" d="M496 -281l-4 9q14 98 20 254q-186 18 -310 137t-124 315q0 193 123 313.5t311 143.5q-2 154 -20 283l4 8h155l4 -8q-14 -90 -22 -279q170 -8 287 -72l6 -18l-23 -158h-43l-8 6q0 135 -221 150q-2 -98 -2 -248v-170q0 -197 2 -301q154 2 299 76l20 -21l-30 -57 q-117 -82 -285 -100q8 -158 20 -254l-4 -9h-155zM233 446q0 -139 72 -233t207 -121q4 205 4 293v170q0 145 -2 244q-137 -23 -209 -119.5t-72 -233.5z" />
<glyph unicode="&#xa3;" horiz-adv-x="1073" d="M274 98l5 -6l196 -16q96 -8 140 -12.5t61 -4.5q117 0 150.5 28t60.5 116l10 12h55l-75 -285l-19 -20q-82 47 -306 69.5t-450 22.5l-20 21v47q127 100 176 200.5t49 218.5q0 63 -19.5 218t-19.5 229q0 197 95.5 311.5t267.5 114.5q102 0 196.5 -49t141.5 -156l-27 -186 h-55l-8 8q-12 141 -63.5 207.5t-160.5 66.5q-223 0 -223 -299q0 -51 11.5 -197.5t11.5 -226.5q-1 -348 -181 -432zM137 639h619l-21 -86h-639z" />
<glyph unicode="&#xa5;" horiz-adv-x="1425" d="M1126 629h-327q-20 -41 -21 -109h348v-90h-348q0 -166 6 -252q6 -80 52 -117q25 -20 108 -20l10 -8l7 -37l-5 -8q-10 0 -64 4t-101.5 6t-63.5 2h-39q-16 0 -64.5 -2t-103.5 -6t-63 -4l-2 8l4 37l10 8q84 0 109 20q45 37 51 117q6 61 6 252h-348v90h348q-2 49 -25 109 h-323v90h272q-158 266 -287 463q-29 45 -65 78q-37 29 -127 38l-17 9v36l11 9q131 -16 182 -17h86q78 0 229 17l9 -9v-36l-9 -9q-88 -4 -120 -24q-25 -18 -25 -35q0 -18 20 -49l283 -510q203 346 254 475q20 41 21 72q0 25 -15.5 38t-33 17t-50.5 8t-47 8l-8 9v36l8 9 q80 -12 189 -13h118q98 0 189 13l8 -9v-36l-8 -9q-94 -14 -141.5 -44.5t-106.5 -118.5q-145 -217 -256 -416h276v-90z" />
<glyph unicode="&#xa8;" horiz-adv-x="450" d="M0 1292q0 37 24.5 64.5t59.5 27.5t60.5 -27.5t25.5 -64.5t-25.5 -63.5t-60.5 -26.5t-59.5 25.5t-24.5 64.5zM281 1292q0 37 24.5 64.5t59 27.5t60.5 -27.5t26 -64.5t-26 -63.5t-60.5 -26.5t-59 25.5t-24.5 64.5z" />
<glyph unicode="&#xa9;" horiz-adv-x="1476" d="M887 932q-10 72 -146 72q-92 0 -147 -43q-86 -76 -86 -234q0 -131 69.5 -203.5t180.5 -72.5q117 0 207 67l18 -29l-25 -57q-96 -55 -215 -55q-160 0 -257 96t-97 250t94.5 254t264.5 100q125 0 221 -39l2 -14l-17 -102h-55zM737 1339q258 0 440.5 -180t182.5 -434 q0 -260 -183.5 -439.5t-449.5 -179.5q-250 0 -430 182.5t-180 436.5t181 434t439 180zM737.5 1280q-227.5 0 -388.5 -163t-161 -392t160 -394t381 -165q236 0 397.5 161.5t161.5 397.5q0 229 -161.5 392t-389 163z" />
<glyph unicode="&#xab;" horiz-adv-x="954" d="M487 862l11 -20q-141 -143 -287 -350q150 -209 287 -349l-11 -20h-118l-15 8q-80 123 -270 361q195 244 270 362l15 8h118zM819 862l10 -20q-141 -143 -286 -350q150 -209 286 -349l-10 -20h-119l-16 8q-78 125 -270 361q195 240 270 362l16 8h119z" />
<glyph unicode="&#xad;" d="M156 543h673l-20 -107h-672z" />
<glyph unicode="&#xae;" horiz-adv-x="1476" d="M721 412h-264l2 32q59 4 72.5 42t13.5 151v272q0 66 -17.5 102t-68.5 38v41h246q250 0 249 -177q0 -76 -48 -123t-118 -67q49 -69 73 -99l68 -82q44 -52 78.5 -75t65.5 -23v-32q-25 0 -42 -2t-25 -2q-74 0 -116 39.5t-146 191.5l-50 72h-63q0 -162 16.5 -215.5 t69.5 -53.5zM668 772h55q141 0 141 135q0 55 -38 88t-101 33h-94v-227q0 -29 37 -29zM737 1339q258 0 440.5 -180t182.5 -434q0 -260 -183.5 -439.5t-449.5 -179.5q-250 0 -430 182.5t-180 436.5t181 434t439 180zM737.5 1280q-227.5 0 -388.5 -163t-161 -392t160 -394 t381 -165q236 0 397.5 161.5t161.5 397.5q0 229 -161.5 392t-389 163z" />
<glyph unicode="&#xb4;" horiz-adv-x="448" d="M27 1124l-15 6l-12 41l6 15l369 207q35 -2 54.5 -21.5t19.5 -50.5q0 -20 -9 -39z" />
<glyph unicode="&#xb8;" horiz-adv-x="413" d="M2 -377l-2 12l27 48h14q66 -25 141 -25q111 0 111 82q0 94 -107 94q-47 0 -98 -14l-18 22l104 158h70l-62 -104q35 8 70 8q70 0 116 -42t46 -106q0 -70 -65.5 -121t-160 -51t-186.5 39z" />
<glyph unicode="&#xbb;" horiz-adv-x="954" d="M125 842l8 20h119l16 -8q66 -106 271 -362q-203 -250 -271 -361l-16 -8h-119l-8 20q129 131 285 349q-152 215 -285 350zM455 842l10 20h119l14 -8q80 -125 272 -362q-190 -233 -272 -361l-14 -8h-119l-10 20q137 139 286 349q-145 207 -286 350z" />
<glyph unicode="&#xc4;" horiz-adv-x="1382" d="M459 1700q0 37 24.5 64.5t59.5 27.5t60.5 -27.5t25.5 -64.5t-25.5 -63.5t-60.5 -26.5t-59.5 25.5t-24.5 64.5zM739 1700q0 37 24.5 64.5t59.5 27.5q33 0 58.5 -27.5t25.5 -64.5t-25.5 -63.5t-58.5 -26.5q-35 0 -59.5 25.5t-24.5 64.5zM739 1362h23l336 -930 q68 -188 96 -254q29 -63 64.5 -95t61.5 -37t71 -5l10 -8l6 -37l-4 -8q-4 0 -92 6t-111 6h-67q-16 0 -64.5 -2t-104 -6t-63.5 -4l-4 8l6 37l8 8q66 0 95.5 16.5t29.5 69.5q0 18 -5 42t-16 59.5t-23 65.5l-32 86l-34 93l-35 98h-459l-35 -98l-35 -93l-32 -86 q-12 -30 -22.5 -65.5t-15.5 -59.5t-5 -42q0 -53 29.5 -69.5t95.5 -16.5l10 -8l6 -37l-4 -8q-12 0 -62.5 4t-95.5 6t-61 2h-39q-23 0 -111 -6t-92 -6l-2 8l4 37l10 8q33 0 52.5 3t47 14.5t51.5 41t46 78.5q23 45 266 670l104 264l76 188zM664 1186l-197 -527h391z" />
<glyph unicode="&#xd6;" horiz-adv-x="1562" d="M782.5 1362q307.5 0 488.5 -199.5t181 -488.5t-182.5 -493t-501.5 -204q-311 0 -483 196t-172 486q0 301 181 502t488.5 201zM780 86q236 0 375 168t139 418q0 254 -142 417.5t-382 163.5q-236 0 -367 -160.5t-131 -418.5q0 -270 140.5 -429t367.5 -159zM592 1700 q0 37 24.5 64.5t59.5 27.5t60.5 -27.5t25.5 -64.5t-25.5 -63.5t-60.5 -26.5t-59.5 25.5t-24.5 64.5zM872 1700q0 37 25 64.5t59.5 27.5t60 -27.5t25.5 -64.5t-25.5 -63.5t-60 -26.5t-59.5 25.5t-25 64.5z" />
<glyph unicode="&#xdc;" horiz-adv-x="1480" d="M549 1700q0 37 24.5 64.5t59.5 27.5t60.5 -27.5t25.5 -64.5t-25.5 -63.5t-60.5 -26.5t-59.5 25.5t-24.5 64.5zM829 1700q0 37 25 64.5t59.5 27.5t60 -27.5t25.5 -64.5t-25.5 -63.5t-60 -26.5t-59.5 25.5t-25 64.5zM1423 1352l4 -9l-6 -36l-8 -9q-84 0 -110 -20 q-45 -41 -50 -117q-6 -96 -6 -313v-393q0 -211 -126 -344.5t-367 -133.5q-272 0 -396.5 130.5t-124.5 347.5v393q0 250 -4 313q-4 74 -51 117q-27 20 -108 20l-11 9l-6 36l4 9q10 0 64.5 -4.5t101.5 -6.5t64 -2h39q16 0 63 2t101.5 6.5t64.5 4.5l4 -9l-6 -36l-8 -9 q-84 0 -111 -20q-45 -41 -49 -117q-6 -76 -6 -311v-338q0 -414 375 -414q377 0 376 414v338q0 236 -6 311q-6 80 -51 117q-25 20 -108 20l-11 9l-6 36l4 9q2 0 93.5 -6.5t113.5 -6.5h45q16 0 61.5 2t95.5 6.5t62 4.5z" />
<glyph unicode="&#xdf;" horiz-adv-x="1171" d="M231 932v59q0 240 92.5 378t274.5 138q145 0 234.5 -80.5t89.5 -187.5q0 -63 -34 -122.5t-75 -98.5t-74.5 -88t-33.5 -92q0 -49 40.5 -92.5t100 -81t118 -82.5t99.5 -120t41 -173q0 -160 -95.5 -236t-207.5 -76q-121 0 -226 74l-4 19l25 211h35l6 -9q0 -96 41 -153.5 t119 -57.5q76 0 123 54.5t47 144.5q0 80 -39 136q-38 56 -94 90l-112 67q-56 33 -95 86t-39 127q0 84 52 167t104.5 156.5t52.5 133.5q0 74 -58.5 129t-150.5 55q-72 0 -120 -35t-68.5 -101.5t-27.5 -129t-7 -148.5v-465q0 -276 6 -368q6 -76 43 -99.5t98 -23.5l10 -10 l4 -27l-4 -8q-147 8 -184 8h-55q-57 0 -205 -8l-2 8l2 29l8 8q84 0 108.5 22.5t30.5 92t6 327.5v367h-147l-8 10v68l8 8h147z" />
<glyph unicode="&#xe4;" horiz-adv-x="1015" d="M676 -6l-12 20q6 29 16 158q-59 -82 -150.5 -138.5t-193.5 -56.5q-123 0 -191.5 78t-68.5 193q0 143 127 225q66 41 175 64.5t176 28.5t114 5h28q-2 133 -24 193q-43 117 -211 117q-86 0 -154.5 -34t-75.5 -118l-8 -6h-45l-18 151l6 13q25 27 126 56.5t200 29.5 q154 0 250 -81t96 -230q0 -125 -4 -277t-5 -225q8 -82 31 -101q25 -23 113 -22l8 -8l2 -29l-2 -8q-98 8 -164 8q-75 0 -141 -6zM664 236q20 37 22 59l10 205h-18q-457 0 -457 -240q0 -78 44 -124t118 -46q78 0 162 48.5t119 97.5zM266 1292q0 37 24.5 64.5t59.5 27.5 q33 0 58.5 -27.5t25.5 -64.5t-25.5 -63.5t-58.5 -26.5q-35 0 -59.5 25.5t-24.5 64.5zM547 1292q0 37 24.5 64.5t57.5 27.5q35 0 60.5 -27.5t25.5 -64.5t-25.5 -63.5t-60.5 -26.5t-58.5 25.5t-23.5 64.5z" />
<glyph unicode="&#xf6;" horiz-adv-x="1193" d="M596 973q233 0 369.5 -149.5t136.5 -358.5q0 -203 -131 -345.5t-371 -142.5q-244 0 -376 146.5t-132 351.5q0 209 137.5 353.5t366.5 144.5zM598 57q164 0 255 121t91 287q0 162 -97 292t-257 130q-166 0 -255 -122t-89 -286q0 -162 97 -292t255 -130zM371 1292 q0 37 24.5 64.5t59 27.5t60.5 -27.5t26 -64.5t-26 -63.5t-60.5 -26.5t-59 25.5t-24.5 64.5zM651 1292q0 37 24.5 64.5t59.5 27.5t60.5 -27.5t25.5 -64.5t-25.5 -63.5t-60.5 -26.5t-59.5 25.5t-24.5 64.5z" />
<glyph unicode="&#xfc;" horiz-adv-x="1220" d="M868 -6l-12 20q2 12 18 162q-125 -199 -339 -199q-291 0 -340 269q-4 29 -11 229q-2 72 -2 316q0 33 -26 65q-29 33 -115 33l-6 8v29l6 6h37q129 0 180 8l72 10l12 -18q-12 -27 -12 -158q0 -49 -3 -161.5t-3 -147.5q0 -125 16 -199q18 -92 81.5 -141t149.5 -49 q115 0 202 81t108 162v267q0 94 -9 205q-6 45 -24 63q-29 35 -115 35l-8 8v29l8 6h37q129 0 178 8l72 10l12 -18q-12 -27 -12 -158q0 -12 -2 -65.5t-2 -120.5v-230q0 -27 6 -198q8 -82 31 -101q25 -23 112 -22l9 -8l4 -29l-4 -8q-98 8 -164 8q-76 0 -142 -6zM360 1292 q0 37 25 64.5t59.5 27.5t60 -27.5t25.5 -64.5t-25.5 -63.5t-60 -26.5t-59.5 25.5t-25 64.5zM641 1292q0 37 24.5 64.5t59.5 27.5t60.5 -27.5t25.5 -64.5t-25.5 -63.5t-60.5 -26.5t-59.5 25.5t-24.5 64.5z" />
<glyph unicode="&#x2c6;" horiz-adv-x="479" d="M231 1378h17l225 -202l6 -15l-12 -39l-14 -6l-213 125l-213 -125l-15 6l-12 39l6 15z" />
<glyph unicode="&#x2da;" horiz-adv-x="335" d="M168 1399q76 0 122 -46t46 -108q0 -57 -44 -100t-122 -43q-80 0 -125 45t-45 102q0 59 46 104.5t122 45.5zM170 1151q39 0 63.5 28.5t24.5 65.5q0 39 -26.5 72t-65.5 33q-41 0 -65.5 -30t-24.5 -69t26.5 -69.5t67.5 -30.5z" />
<glyph unicode="&#x2dc;" horiz-adv-x="710" d="M711 1368q0 -14 -16.5 -48t-61.5 -72t-103 -38q-25 0 -184.5 9.5t-206.5 9.5t-68.5 -11.5t-43.5 -39.5l-27 16q0 41 54.5 98.5t131.5 57.5q29 0 165 -9.5t202 -9.5q94 0 133 53z" />
<glyph unicode="&#x2000;" horiz-adv-x="896" />
<glyph unicode="&#x2001;" horiz-adv-x="1792" />
<glyph unicode="&#x2002;" horiz-adv-x="896" />
<glyph unicode="&#x2003;" horiz-adv-x="1792" />
<glyph unicode="&#x2004;" horiz-adv-x="597" />
<glyph unicode="&#x2005;" horiz-adv-x="448" />
<glyph unicode="&#x2006;" horiz-adv-x="298" />
<glyph unicode="&#x2007;" horiz-adv-x="298" />
<glyph unicode="&#x2008;" horiz-adv-x="224" />
<glyph unicode="&#x2009;" horiz-adv-x="358" />
<glyph unicode="&#x200a;" horiz-adv-x="99" />
<glyph unicode="&#x2010;" d="M156 543h673l-20 -107h-672z" />
<glyph unicode="&#x2011;" d="M156 543h673l-20 -107h-672z" />
<glyph unicode="&#x2012;" d="M156 543h673l-20 -107h-672z" />
<glyph unicode="&#x2013;" horiz-adv-x="1122" d="M158 543h827l-18 -107h-830z" />
<glyph unicode="&#x2014;" horiz-adv-x="1609" d="M158 543h1315l-19 -107h-1317z" />
<glyph unicode="&#x2018;" horiz-adv-x="313" d="M211 1188h-12q-51 20 -111.5 93t-60.5 146q0 88 51 89q43 0 82 -18.5t39 -49.5q0 -23 -11.5 -55.5t-11.5 -44.5q0 -63 47 -142v-8z" />
<glyph unicode="&#x2019;" horiz-adv-x="313" d="M115 1188h-13l-12 10v8q47 78 47 142q0 12 -11 44.5t-11 55.5q0 31 39 49.5t82 18.5q51 0 51 -89q0 -74 -60.5 -146.5t-111.5 -92.5z" />
<glyph unicode="&#x201a;" horiz-adv-x="436" d="M129 -158h-12l-13 13v8q47 74 48 139q0 12 -11.5 45t-11.5 55q0 31 39 49.5t82 18.5q51 0 51 -88q0 -72 -60.5 -146t-111.5 -94z" />
<glyph unicode="&#x201c;" horiz-adv-x="624" d="M211 1188h-12q-53 23 -113.5 95.5t-60.5 143.5q0 88 53 89q43 0 82 -17.5t39 -48.5q0 -23 -11.5 -55.5t-11.5 -46.5q0 -70 47 -140v-8zM522 1188h-12q-51 23 -111.5 95.5t-60.5 143.5q0 88 51 89q43 0 82 -17.5t39 -48.5q0 -23 -11.5 -55.5t-11.5 -46.5q0 -66 48 -140v-8 z" />
<glyph unicode="&#x201d;" horiz-adv-x="655" d="M381 1516h12q53 -23 113.5 -95.5t60.5 -144.5q0 -88 -53 -88q-43 0 -82 17.5t-39 47.5q0 23 11.5 55.5t11.5 47.5q0 70 -47 139v8zM70 1516h12q51 -23 111.5 -95.5t60.5 -144.5q0 -88 -51 -88q-43 0 -82 17.5t-39 47.5q0 23 11 55.5t11 47.5q0 66 -47 139v8z" />
<glyph unicode="&#x201e;" horiz-adv-x="768" d="M129 -158h-12l-13 13v8q47 74 48 139q0 12 -11.5 45t-11.5 55q0 31 39 49.5t82 18.5q51 0 51 -88q0 -72 -60.5 -146t-111.5 -94zM459 -158h-10l-15 13v8q49 74 49 139q0 12 -12 45t-12 55q0 31 40 49.5t81 18.5q53 0 53 -88q0 -72 -60.5 -146t-113.5 -94z" />
<glyph unicode="&#x2026;" horiz-adv-x="1218" d="M127 72q0 39 27.5 68.5t66.5 29.5t68.5 -29.5t29.5 -68.5t-29.5 -67t-68.5 -28t-66.5 28t-27.5 67zM514 72q0 39 27.5 68.5t66.5 29.5t69 -29.5t30 -68.5t-30 -67t-69 -28t-66.5 28t-27.5 67zM901 72q0 39 27.5 68.5t66.5 29.5t69 -29.5t30 -68.5t-30 -67t-69 -28 t-66.5 28t-27.5 67z" />
<glyph unicode="&#x202f;" horiz-adv-x="358" />
<glyph unicode="&#x2039;" horiz-adv-x="622" d="M487 862l11 -20q-141 -143 -287 -350q150 -209 287 -349l-11 -20h-118l-15 8q-80 123 -270 361q195 244 270 362l15 8h118z" />
<glyph unicode="&#x203a;" horiz-adv-x="622" d="M125 842l8 20h119l16 -8q66 -106 271 -362q-203 -250 -271 -361l-16 -8h-119l-8 20q129 131 285 349q-152 215 -285 350z" />
<glyph unicode="&#x205f;" horiz-adv-x="448" />
<glyph unicode="&#x20ac;" horiz-adv-x="1280" d="M934 629l-16 -90h-519q29 -219 147 -337t288 -118q201 0 331 115l17 -23l-41 -92q-154 -106 -336 -107q-221 0 -376 154t-187 408h-164l14 90h144v108h-158l16 90h154q41 238 190.5 386.5t372.5 148.5q193 0 334 -70l4 -18l-31 -187h-57l-6 9q-16 158 -244 157 q-170 0 -262 -92q-111 -111 -148 -334h568l-17 -90h-561v-108h543z" />
<glyph unicode="&#x2122;" horiz-adv-x="1550" d="M487 803l5 -37q-8 0 -47 2t-46 2h-71q-8 0 -44 -2t-44 -2l4 37q55 0 67.5 26.5t12.5 118.5v191q0 80 -5 141h-8q-94 0 -108 -10q-18 -8 -25 -45l-35 -2v114l9 13q23 -12 167 -13h93q143 0 163 13l7 -7l8 -120l-41 2q-6 37 -23 45q-16 10 -108 10h-8q0 -10 -1 -55t-1 -86 v-174q0 -109 14 -135.5t65 -26.5zM1411 803l6 -37q-8 0 -47 2t-47 2h-35q-8 0 -48 -2t-46 -2l4 37q61 0 62 57q0 10 -3.5 40t-3.5 48l-20 303q-14 -31 -88 -223l-96 -246h-82l-162 467q0 -8 -4 -41.5t-6 -68.5l-11 -174q-2 -27 -3 -48.5t-2 -29.5t-1 -15q0 -47 12.5 -58 t43.5 -11l6 -37q-8 0 -41 2t-41 2h-33q-8 0 -45 -2t-43 -2l6 37q39 0 55.5 29.5t22.5 115.5l12 191q6 115 6 127q0 41 -32 41q-6 0 -16.5 -1t-16.5 -1l-4 38q8 0 47 -3t49 -3h39q39 0 57 6q-2 0 27 -92l69 -207q40 -116 62 -165q10 18 86 208.5t92 255.5q10 -6 29 -6h63 q8 0 47 3t47 3v-36h-36q-23 0 -28 -12.5t-5 -63.5q0 -45 4 -92l12 -174q8 -106 18.5 -135t34.5 -29q4 0 12.5 1t14.5 1z" />
<glyph unicode="&#xe000;" horiz-adv-x="940" d="M0 940h940v-940h-940v940z" />
<glyph unicode="&#xfb01;" horiz-adv-x="1255" d="M1210 0l-4 -8q-156 8 -209 8h-28q-55 0 -211 -8l-2 8l2 29l8 8q88 0 112 22q23 20 31 101q6 68 6 174v252q0 123 -6 205q-6 43 -26 63q-29 35 -115 35l-8 8v29l8 6h37q129 0 180 8l72 10l12 -18q-14 -31 -14 -154q0 -12 -2.5 -67.5t-2.5 -122.5v-230q0 -84 9 -198 q6 -78 30 -101q26 -22 100 -22h7l10 -10zM862 1292q0 41 28.5 71t67.5 30q41 0 71 -31t30 -70t-30 -67.5t-71 -28.5t-68.5 28.5t-27.5 67.5zM641 856l-10 -10h-260v-318q0 -268 8 -368q8 -82 31 -101q30 -22 136 -22h9l10 -10l4 -27l-4 -8q-156 8 -225 8h-49q-57 0 -213 -8 l-2 8l2 29l8 8q88 0 113 22q25 25 31 93.5t6 326.5v367h-152l-8 10v68l8 8h152v117q0 221 83.5 349t237.5 128q102 0 217 -62l10 -20l-24 -158h-53q-8 63 -59.5 101t-119.5 38q-55 0 -90 -21.5t-48 -68.5t-16 -81.5t-3 -104.5v-217h260l10 -8v-68z" />
<glyph unicode="&#xfb02;" horiz-adv-x="1251" d="M747 1462v27l9 8h36q129 0 181 8l73 11l13 -19q-6 -12 -15 -158q-6 -88 -6 -364v-447q0 -176 8 -368q8 -80 31 -101q26 -22 100 -22h7l10 -10l4 -27l-4 -8q-156 8 -209 8h-29q-55 0 -211 -8l-2 8l2 29l9 8q88 0 112.5 22.5t30.5 100.5q6 104 6 319v492q0 297 -6 385 q-2 33 -27 63q-31 35 -114 35zM641 856l-10 -10h-260v-318q0 -268 8 -368q8 -82 31 -101q30 -22 136 -22h9l10 -10l4 -27l-4 -8q-156 8 -225 8h-49q-57 0 -213 -8l-2 8l2 29l8 8q88 0 113 22q25 25 31 93.5t6 326.5v367h-152l-8 10v68l8 8h152v117q0 221 83.5 349t237.5 128 q102 0 217 -62l10 -20l-24 -158h-53q-8 63 -59.5 101t-119.5 38q-55 0 -90 -21.5t-48 -68.5t-16 -81.5t-3 -104.5v-217h260l10 -8v-68z" />
<glyph unicode="&#xfb03;" horiz-adv-x="1943" d="M1898 0l-4 -8q-156 8 -209 8h-28q-55 0 -211 -8l-2 8l2 29l8 8q88 0 112 22q23 20 31 101q6 68 6 174v252q0 123 -6 205q-6 43 -26 63q-29 35 -115 35l-8 8v29l8 6h37q129 0 180 8l72 10l12 -18q-14 -31 -14 -154q0 -12 -2.5 -67.5t-2.5 -122.5v-230q0 -84 9 -198 q6 -78 30 -101q26 -22 100 -22h7l10 -10zM1550 1292q0 41 28.5 71t67.5 30q41 0 71 -31t30 -70t-30 -67.5t-71 -28.5t-68.5 28.5t-27.5 67.5zM1329 856l-10 -10h-260v-318q0 -268 8 -368q8 -82 31 -101q30 -22 136 -22h9l10 -10l4 -27l-4 -8q-156 8 -225 8h-49 q-57 0 -213 -8l-2 8l2 29l8 8q88 0 113 22q25 25 31 93.5t6 326.5v367h-152l-8 10v68l8 8h152v117q0 221 83.5 349t237.5 128q102 0 217 -62l10 -20l-24 -158h-53q-8 63 -59.5 101t-119.5 38q-55 0 -90 -21.5t-48 -68.5t-16 -81.5t-3 -104.5v-217h260l10 -8v-68zM641 856 l-10 -10h-260v-318q0 -268 8 -368q8 -82 31 -101q30 -22 136 -22h9l10 -10l4 -27l-4 -8q-156 8 -225 8h-49q-57 0 -213 -8l-2 8l2 29l8 8q88 0 113 22q25 25 31 93.5t6 326.5v367h-152l-8 10v68l8 8h152v117q0 221 83.5 349t237.5 128q102 0 217 -62l10 -20l-24 -158h-53 q-8 63 -59.5 101t-119.5 38q-55 0 -90 -21.5t-48 -68.5t-16 -81.5t-3 -104.5v-217h260l10 -8v-68z" />
<glyph unicode="&#xfb04;" horiz-adv-x="1939" d="M1435 1462v27l9 8h36q129 0 181 8l73 11l13 -19q-6 -12 -15 -158q-6 -88 -6 -364v-447q0 -176 8 -368q8 -80 31 -101q26 -22 100 -22h7l10 -10l4 -27l-4 -8q-156 8 -209 8h-29q-55 0 -211 -8l-2 8l2 29l9 8q88 0 112.5 22.5t30.5 100.5q6 104 6 319v492q0 297 -6 385 q-2 33 -27 63q-31 35 -114 35zM1329 856l-10 -10h-260v-318q0 -268 8 -368q8 -82 31 -101q30 -22 136 -22h9l10 -10l4 -27l-4 -8q-156 8 -225 8h-49q-57 0 -213 -8l-2 8l2 29l8 8q88 0 113 22q25 25 31 93.5t6 326.5v367h-152l-8 10v68l8 8h152v117q0 221 83.5 349 t237.5 128q102 0 217 -62l10 -20l-24 -158h-53q-8 63 -59.5 101t-119.5 38q-55 0 -90 -21.5t-48 -68.5t-16 -81.5t-3 -104.5v-217h260l10 -8v-68zM641 856l-10 -10h-260v-318q0 -268 8 -368q8 -82 31 -101q30 -22 136 -22h9l10 -10l4 -27l-4 -8q-156 8 -225 8h-49 q-57 0 -213 -8l-2 8l2 29l8 8q88 0 113 22q25 25 31 93.5t6 326.5v367h-152l-8 10v68l8 8h152v117q0 221 83.5 349t237.5 128q102 0 217 -62l10 -20l-24 -158h-53q-8 63 -59.5 101t-119.5 38q-55 0 -90 -21.5t-48 -68.5t-16 -81.5t-3 -104.5v-217h260l10 -8v-68z" />
</font>
</defs>
</svg>
